<?xml version="1.0" encoding="utf-8"?>
<!-- Generator: Adobe Illustrator 21.0.1, SVG Export Plug-In . SVG Version: 6.00 Build 0)  -->
<svg version="1.1" id="Layer_1" xmlns="http://www.w3.org/2000/svg" xmlns:xlink="http://www.w3.org/1999/xlink" x="0px" y="0px"
	 viewBox="0 0 326.6 63" style="enable-background:new 0 0 326.6 63;" xml:space="preserve">
<style type="text/css">
	.st0{fill:#2F4EA2;}
	.st1{clip-path:url(#SVGID_2_);fill:url(#SVGID_3_);}
</style>
<g>
	<path class="st0" d="M61.1,61.3H50V20.4h10.8v5.2c1.3-2.2,3-3.7,5.2-4.7c2.2-1,4.3-1.5,6.6-1.5c2.5,0,4.8,0.5,6.6,1.3
		c1.8,0.8,3.3,2,4.7,3.5c1.2,1.5,2.2,3.2,2.7,5.2c0.7,2,0.8,4.2,0.8,6.3v25.8H76.2V37.6c0-2.3-0.7-4.3-1.8-5.8
		c-1.2-1.5-3.2-2.3-5.8-2.3c-2.5,0-4.3,0.8-5.7,2.5c-1.3,1.7-2,3.7-2,6v23.4H61.1z"/>
	<path d="M100.5,47.9c0.2,1.7,0.8,3,2,4.3c1.2,1.3,3,2,5.5,2c1.8,0,3.2-0.3,4.2-1.2c0.8-0.8,1.3-1.8,1.3-2.8c0-1-0.3-1.8-1-2.5
		c-0.7-0.7-1.8-1.2-3.5-1.5l-5.5-1.3c-4-0.8-7-2.5-8.8-4.7c-1.8-2.2-2.8-4.7-2.8-7.6c0-1.8,0.3-3.5,1.2-5.2c0.8-1.7,1.8-3,3.2-4.3
		c1.3-1.2,3-2.2,4.8-2.8c1.8-0.7,3.8-1.2,6.1-1.2c2.8,0,5.3,0.3,7.3,1.2c2,0.8,3.7,1.8,4.8,3c1.3,1.2,2.2,2.5,2.8,3.8
		c0.7,1.3,1,2.7,1.2,3.7l-9.3,2.2c-0.2-0.7-0.3-1.2-0.5-1.8c-0.3-0.7-0.7-1.2-1.2-1.8c-0.5-0.7-1.2-1-2-1.3c-0.8-0.3-1.8-0.5-3-0.5
		c-1.5,0-2.7,0.3-3.7,1.2c-1,0.8-1.5,1.8-1.5,3c0,1,0.3,1.8,1,2.5s1.7,1,2.7,1.3l5.8,1.3c4,0.8,7.1,2.3,9.1,4.7c2,2.3,3,5,3,8
		c0,1.7-0.3,3.3-1,5s-1.7,3-3,4.3c-1.3,1.3-3,2.3-5,3.2c-2,0.8-4.3,1.2-7,1.2c-3.2,0-5.7-0.5-7.8-1.3c-2.2-0.8-3.8-2-5.2-3.3
		c-1.3-1.3-2.3-2.7-3-4.2c-0.7-1.5-1-2.8-1.2-4L100.5,47.9z"/>
	<path d="M165.3,49.7c-0.5,1.8-1.3,3.5-2.3,5c-1,1.5-2.3,3-4,4.2c-1.5,1.2-3.3,2.2-5.5,2.8c-2.2,0.7-4.3,1-6.8,1
		c-2.8,0-5.5-0.5-8.1-1.5c-2.5-1-4.8-2.3-6.8-4.3c-2-1.8-3.5-4.2-4.7-7c-1.2-2.7-1.7-5.8-1.7-9.3c0-3.3,0.5-6.3,1.7-9
		c1.2-2.7,2.7-5,4.5-6.8c1.8-1.8,4-3.3,6.5-4.3c2.5-1,5-1.5,7.6-1.5c6.3,0,11.3,1.8,15,5.7c3.5,3.8,5.3,9,5.3,15.6
		c0,0.8,0,1.5-0.2,2.2c0,0.7-0.2,1.2-0.2,1.2h-29.3c0,1.3,0.3,2.5,1,3.7c0.7,1.2,1.3,2.2,2.3,3c1,0.8,2,1.5,3.2,2
		c1.2,0.5,2.5,0.7,4,0.7c2.7,0,4.7-0.7,6.1-1.8c1.5-1.2,2.5-2.7,3.2-4.5L165.3,49.7z M155,36.2c0-1-0.3-2-0.7-3
		c-0.3-1-1-1.8-1.7-2.7c-0.8-0.8-1.7-1.3-2.8-1.8c-1.2-0.5-2.5-0.7-4-0.7s-2.7,0.3-3.8,0.8s-2,1.2-2.8,2c-0.8,0.8-1.3,1.7-1.8,2.7
		c-0.5,1-0.7,1.8-0.7,2.8H155V36.2z"/>
	<path d="M181.6,61.3h-11.1V20.4h10.8v5.2c1.3-2.2,3-3.7,5.2-4.7c2.2-1,4.3-1.5,6.6-1.5c2.5,0,4.8,0.5,6.6,1.3
		c1.8,0.8,3.3,2,4.7,3.5c1.2,1.5,2.2,3.2,2.7,5.2c0.7,2,0.8,4.2,0.8,6.3v25.8h-11.1V37.6c0-2.3-0.7-4.3-1.8-5.8
		c-1.2-1.5-3.2-2.3-5.8-2.3c-2.5,0-4.3,0.8-5.7,2.5c-1.3,1.7-2,3.7-2,6v23.4H181.6z"/>
	<path d="M228.7,20.4h8.3v9.8h-8.3v17.1c0,1.8,0.3,3,1.2,3.7c0.8,0.7,2,1,3.7,1c0.7,0,1.3,0,2-0.2c0.7,0,1.2-0.2,1.5-0.3v9.1
		c-0.5,0.2-1.3,0.5-2.3,0.7c-1,0.2-2.3,0.3-4,0.3c-4,0-7.1-1.2-9.5-3.3c-2.3-2.2-3.5-5.3-3.5-9.3V30.3h-7.5v-9.8h2.2
		c2.2,0,3.8-0.7,4.8-1.8c1-1.3,1.5-2.8,1.5-4.7V8.1h10V20.4z"/>
	<path d="M266.6,31.4c-1.2-0.2-2.2-0.3-3.3-0.3c-1.5,0-2.8,0.2-4.2,0.7c-1.3,0.3-2.3,1-3.3,2c-1,0.8-1.7,2-2.3,3.5
		c-0.7,1.5-0.8,3.3-0.8,5.5v18.8h-11.1V20.4h10.8v6.1c0.7-1.3,1.3-2.5,2.3-3.3c1-0.8,2-1.5,3.2-2c1.2-0.5,2.2-0.8,3.3-1
		c1.2-0.2,2-0.3,3-0.3h1.3c0.5,0,0.8,0,1.3,0.2v11.3H266.6z"/>
	<path class="st0" d="M268.9,7c0-2,0.7-3.7,2-5c1.3-1.3,3-2,4.8-2c2,0,3.5,0.7,4.8,2c1.3,1.3,2,3,2,5c0,1.8-0.7,3.5-2,4.8
		c-1.3,1.3-3,2-4.8,2c-1.8,0-3.5-0.7-4.8-2C269.6,10.5,268.9,8.8,268.9,7"/>
	<path d="M270.3,61.3V26c0-3.1,2.5-5.6,5.6-5.6c3.1,0,5.6,2.5,5.6,5.6v29.9c0,3.1-2.5,5.6-5.6,5.6h-5.6V61.3z"/>
	<path d="M307.5,29.4c-1.5,0-2.8,0.3-4,0.8c-1.3,0.5-2.3,1.2-3.3,2.2c-1,1-1.7,2.2-2.3,3.7c-0.5,1.5-0.8,3.2-0.8,5
		c0,1.8,0.3,3.5,0.8,5c0.5,1.5,1.3,2.7,2.3,3.7c1,1,2.2,1.8,3.3,2.3c1.3,0.5,2.7,0.8,4,0.8c1.3,0,2.7-0.2,3.7-0.7c1-0.5,2-1,2.8-1.7
		c0.8-0.7,1.3-1.5,1.8-2.3c0.5-0.8,0.8-1.7,1-2.5l9.8,3.3c-0.5,1.7-1.2,3.3-2.2,5c-1,1.7-2.3,3.2-4,4.5c-1.7,1.3-3.5,2.3-5.7,3.2
		c-2.2,0.8-4.7,1.2-7.3,1.2c-3,0-5.8-0.5-8.5-1.7c-2.7-1.2-5-2.7-6.8-4.5c-2-2-3.5-4.2-4.7-6.8c-1.2-2.7-1.7-5.5-1.7-8.6
		c0-3.2,0.5-6.2,1.7-8.8c1.2-2.7,2.7-5,4.5-6.8c2-2,4.2-3.5,6.8-4.5c2.7-1.2,5.3-1.7,8.3-1.7c2.8,0,5.3,0.3,7.5,1.2
		c2.2,0.8,4.2,1.8,5.7,3.2c1.7,1.3,3,2.8,4,4.5c1,1.7,1.7,3.3,2.2,5.2l-10,3.3c-0.5-1.7-1.5-3.3-2.8-4.8
		C312.3,30.1,310.1,29.4,307.5,29.4"/>
	<path class="st0" d="M30,7c0-2,0.7-3.7,2-5c1.3-1.2,3-1.8,4.8-1.8c2,0,3.5,0.7,4.8,2c1.3,1.3,2,3,2,5c0,1.8-0.7,3.5-2,4.8
		c-1.3,1.3-3,2-4.8,2c-1.8,0-3.5-0.7-4.8-2C30.7,10.5,30,8.8,30,7"/>
</g>
<g>
	<defs>
		<path id="SVGID_1_" d="M0,45.7v15.4v0.2h5.6c3.1,0,5.6-2.5,5.6-5.6v-10c0-3.1-2.5-5.6-5.6-5.6C2.5,40.2,0,42.7,0,45.7 M15.7,35.7
			v25.3v0.2h5.6c3.1,0,5.6-2.5,5.6-5.6V35.7c0-3.1-2.5-5.6-5.6-5.6C18.2,30.2,15.7,32.7,15.7,35.7 M31.4,25.8v35.3v0.2h5.6
			c3.1,0,5.6-2.5,5.6-5.6V25.8c0-3.1-2.5-5.6-5.6-5.6C33.9,20.2,31.4,22.7,31.4,25.8"/>
	</defs>
	<clipPath id="SVGID_2_">
		<use xlink:href="#SVGID_1_"  style="overflow:visible;"/>
	</clipPath>
	
		<linearGradient id="SVGID_3_" gradientUnits="userSpaceOnUse" x1="-21.511" y1="79.1652" x2="-20.511" y2="79.1652" gradientTransform="matrix(32.7065 -21.6796 -21.6796 -32.7065 2420.1838 2177.4438)">
		<stop  offset="0" style="stop-color:#429955"/>
		<stop  offset="9.479892e-02" style="stop-color:#419659"/>
		<stop  offset="0.2403" style="stop-color:#3E8F65"/>
		<stop  offset="0.4184" style="stop-color:#398374"/>
		<stop  offset="0.6221" style="stop-color:#357384"/>
		<stop  offset="0.8444" style="stop-color:#305F96"/>
		<stop  offset="1" style="stop-color:#2E4EA2"/>
	</linearGradient>
	<polygon class="st1" points="-18.9,32.7 29.5,0.6 61.4,48.7 13,80.8 	"/>
</g>
</svg>
